<svg width="37" height="33" xmlns="http://www.w3.org/2000/svg"><g fill="none" fill-rule="evenodd"><path d="M1.875 23c0-5.523 4.401-10 9.83-10h6.466C23.599 13 28 17.477 28 23s-4.4 10-9.83 10h-6.465a9.655 9.655 0 0 1-4.768-1.253C4.625 32.814 2.312 33.112 0 32.64c2.38-1.108 3.533-2.507 3.458-4.197A10.078 10.078 0 0 1 1.875 23z" fill="#8BCCFF"/><path d="M32.431 20.073c-.1 2.198 1.423 4.018 4.569 5.459-3.057.614-6.113.226-9.17-1.162A12.941 12.941 0 0 1 21.522 26H13C5.82 26 0 20.18 0 13S5.82 0 13 0h8.522c7.18 0 13 5.82 13 13a12.94 12.94 0 0 1-2.091 7.073z" fill="#2196F3"/><g fill="#FFF"><path d="M14.99 10.832c.006.042-.99.977-.99 1.022v5.11l.99 1.022h5.94c1.347.186 1.671-1.547 1.671-1.748a.246.246 0 0 1 .145-.245c.844-.368.486-1.52.453-1.619a.246.246 0 0 1 .12-.305c1.095-.536.405-1.502.316-1.624a.248.248 0 0 1-.026-.296C25.593 9.073 19.397 9.833 19 9.883a.242.242 0 0 1-.288-.285c.925-4.736-1.206-4.685-1.874-4.564.422 4.11-1.172 5.4-1.848 5.798zM12.325 11h-.65a.675.675 0 0 0-.675.675v5.65c0 .373.302.675.675.675h.65a.675.675 0 0 0 .675-.675v-5.65a.675.675 0 0 0-.675-.675z"/></g></g></svg>