<svg width="13" height="13" viewBox="0 0 13 13" fill="none" xmlns="http://www.w3.org/2000/svg">
<path fill-rule="evenodd" clip-rule="evenodd" d="M2 0C0.895416 0 0 0.895432 0 2V11C0 12.1046 0.895416 13 2 13H11C12.1046 13 13 12.1046 13 11V2C13 0.895432 12.1046 0 11 0H2ZM1 6V11C1 11.5523 1.44772 12 2 12H11C11.5523 12 12 11.5523 12 11V6H9.96457C9.98792 6.1633 10 6.33024 10 6.5C10 8.433 8.43298 10 6.5 10C4.56702 10 3 8.433 3 6.5C3 6.33024 3.01208 6.1633 3.03543 6H1ZM4.05002 6C4.01721 6.16155 4 6.32877 4 6.5C4 7.88071 5.11929 9 6.5 9C7.88071 9 9 7.88071 9 6.5C9 6.32877 8.98279 6.16155 8.94998 6C8.71835 4.85888 7.70947 4 6.5 4C5.29053 4 4.28165 4.85888 4.05002 6ZM11 2H9V4H11V2Z" fill="#ff9d1b"/>
</svg>
