<svg width="15" height="12" xmlns="http://www.w3.org/2000/svg"><path d="M7.308 3.03c0 .237.027.468.08.69A8.783 8.783 0 0 1 1.043.554a2.98 2.98 0 0 0-.416 1.524c0 1.05.543 1.978 1.369 2.521A3.101 3.101 0 0 1 .603 4.22v.038c0 1.468 2.34 2.731 2.468 2.97.13.24-.53.107-.81.107-.199 0-.392-.02-.58-.054a3.075 3.075 0 0 0 2.875 2.103 6.237 6.237 0 0 1-3.822 1.297A6.37 6.37 0 0 1 0 10.64 8.811 8.811 0 0 0 4.717 12c5.661 0 8.756-4.616 8.756-8.62 0-.13-.003-.261-.009-.391A6.203 6.203 0 0 0 15 1.42a6.227 6.227 0 0 1-1.768.478A3.047 3.047 0 0 0 14.586.22c-.595.348-1.254.6-1.955.736A3.096 3.096 0 0 0 10.385 0c-1.7 0-3.077 1.356-3.077 3.03z" fill="#ff9d1b" fill-rule="evenodd"/></svg>