<svg width="14" height="14" xmlns="http://www.w3.org/2000/svg"><path d="M11.182 14c-.153-.041-.455-.087-.727-.202C5.684 11.784 2.217 8.484.248 3.743c-.66-1.589.03-2.93 1.694-3.48.298-.098.59-.104.885.001.71.256 2.507 2.682 2.547 3.408.03.556-.355.857-.737 1.112-.724.482-.728 1.093-.419 1.773.699 1.54 1.892 2.598 3.436 3.284.561.25 1.097.225 1.48-.343.681-1.012 1.517-.963 2.43-.334.458.315.923.623 1.36.967.59.467 1.338.856.985 1.835-.368 1.019-1.64 2.045-2.727 2.034zM7.674.01c3.35.11 6.236 3.117 6.195 6.361-.004.319.113.79-.371.781-.464-.008-.342-.487-.384-.805-.444-3.445-2.052-5.07-5.54-5.597-.29-.043-.73.018-.708-.356.032-.556.555-.349.808-.385zm4.475 5.78c-.033.238.109.646-.284.704-.53.08-.426-.396-.478-.702-.355-2.095-1.105-2.863-3.26-3.336-.316-.069-.81-.02-.728-.5.078-.456.521-.3.856-.261 2.153.253 3.911 2.084 3.894 4.095zm-1.637-.381c.01.265-.02.545-.34.582-.23.027-.382-.163-.406-.398-.089-.864-.553-1.375-1.437-1.514-.265-.041-.525-.125-.402-.475.083-.235.302-.259.526-.264.955-.024 2.074 1.098 2.059 2.069z" fill="#ff9d1b" fill-rule="evenodd"/></svg>