<svg width="16" height="10" xmlns="http://www.w3.org/2000/svg"><path d="M8.785 9.962s.288-.031.436-.188c.136-.144.132-.414.132-.414s-.02-1.265.576-1.452c.588-.183 1.341 1.223 2.14 1.764.605.41 1.064.32 1.064.32l2.137-.03s1.117-.068.587-.934c-.043-.071-.308-.641-1.588-1.813-1.34-1.226-1.16-1.027.453-3.148.983-1.292 1.34-2.395 1.217-2.733-.117-.322-.84-.237-.84-.237l-2.405.015s-.179-.024-.311.054c-.13.076-.212.255-.212.255s-.345 1.314-.853 2.164c-1.071 1.793-1.5 1.888-1.675 1.777-.407-.26-.305-1.043-.305-1.6 0-1.738.267-2.462-.521-2.65-.262-.062-.454-.103-1.123-.11-.859-.009-1.585.003-1.996.201-.274.132-.485.427-.357.444.16.02.52.096.71.352.247.33.238 1.073.238 1.073s.142 2.046-.33 2.3c-.325.175-.77-.181-1.725-1.808-.489-.834-.857-2.165-.857-2.165s-.071-.173-.199-.265a1.002 1.002 0 0 0-.37-.147l-2.285.015s-.343.01-.47.157c-.112.13-.008.401-.008.401S1.833 6.1 3.86 8.18c1.858 1.907 3.968 1.782 3.968 1.782h.957z" fill="#ff9d1b" fill-rule="evenodd"/></svg>