<?xml version="1.0" encoding="UTF-8"?>
<svg width="36px" height="36px" viewBox="0 0 36 36" version="1.1" xmlns="http://www.w3.org/2000/svg" xmlns:xlink="http://www.w3.org/1999/xlink">
    <!-- Generator: sketchtool 53 (72520) - https://sketchapp.com -->
    <title>66114142-7F07-4EF2-8BCF-A568B96F909F</title>
    <desc>Created with sketchtool.</desc>
    <g id="Symbols" stroke="none" stroke-width="1" fill="none" fill-rule="evenodd">
        <g id="ico/product/white/avia" fill="#000000">
            <g id="icon/product/avia">
                <path d="M27.1787888,7.27521278 C28.0371528,6.41684873 29.3967971,6.39070045 30.2530483,7.24695167 C31.1092996,8.1032029 31.0831513,9.46284717 30.2247872,10.3212112 L24.8117128,15.7342856 L27.5000401,28.4132048 C27.6512408,29.1263102 27.4314868,29.8675031 26.9160351,30.3829548 L25.8369664,31.4620235 L20.168823,20.3771754 L14.3652108,26.1807877 L14.9942179,29.4519753 C15.0616748,29.8027888 14.950775,30.1642211 14.6981681,30.416828 L13.5544497,31.5605464 L10.9076741,26.5923259 L5.93945362,23.9455503 L7.08317198,22.8018319 C7.33577893,22.549225 7.69721121,22.4383252 8.0480247,22.5057821 L11.3192123,23.1347892 L27.1787888,7.27521278 Z M6.03797648,11.6630336 L7.14665684,10.5543533 C7.66179689,10.0392132 8.4024301,9.81939279 9.11519137,9.97009089 L19.6464466,12.1966991 L15.4038059,16.4393398 L6.03797648,11.6630336 Z" id="Combined-Shape"></path>
            </g>
        </g>
    </g>
</svg>